<?xml version="1.0" encoding="UTF-8"?>
<svg width="1200px" height="800px" viewBox="0 0 1200 800" version="1.1" xmlns="http://www.w3.org/2000/svg" xmlns:xlink="http://www.w3.org/1999/xlink">
    <title>Hello World Intro</title>
    <g id="Hello-World-Intro" stroke="none" stroke-width="1" fill="none" fill-rule="evenodd">
        <g id="The-C-Programming-La" transform="translate(384.768000, 87.672000)" fill="#FFFFFF" fill-rule="nonzero">
            <polygon id="Path" points="6.24 4.768 0 4.768 0 0.928 16.64 0.928 16.64 4.768 10.4 4.768 10.4 23.328 6.24 23.328"></polygon>
            <path d="M23.616,0.672 L23.616,9.792 C24.1493333,8.93866667 24.8586667,8.25066667 25.744,7.728 C26.6293333,7.20533333 27.6266667,6.944 28.736,6.944 C30.2933333,6.944 31.52,7.35466667 32.416,8.176 C33.312,8.99733333 33.76,10.208 33.76,11.808 L33.76,23.328 L29.792,23.328 L29.792,13.216 C29.792,12.2346667 29.5946667,11.5093333 29.2,11.04 C28.8053333,10.5706667 28.2026667,10.336 27.392,10.336 C26.752,10.336 26.144,10.56 25.568,11.008 C24.992,11.456 24.5226667,12.1386667 24.16,13.056 C23.7973333,13.9733333 23.616,15.1253333 23.616,16.512 L23.616,23.328 L19.648,23.328 L19.648,0.672 L23.616,0.672 Z" id="Path"></path>
            <path d="M52.608,16.544 L41.472,16.544 C41.6426667,17.7386667 42.064,18.6453333 42.736,19.264 C43.408,19.8826667 44.2666667,20.192 45.312,20.192 C46.208,20.192 46.96,19.9893333 47.568,19.584 C48.176,19.1786667 48.7253333,18.5493333 49.216,17.696 L52.416,18.88 C51.7546667,20.3946667 50.832,21.5573333 49.648,22.368 C48.464,23.1786667 46.944,23.584 45.088,23.584 C43.3386667,23.584 41.8826667,23.1733333 40.72,22.352 C39.5573333,21.5306667 38.704,20.4853333 38.16,19.216 C37.616,17.9466667 37.344,16.6293333 37.344,15.264 C37.344,13.8986667 37.616,12.5813333 38.16,11.312 C38.704,10.0426667 39.5573333,8.99733333 40.72,8.176 C41.8826667,7.35466667 43.3386667,6.944 45.088,6.944 C46.7733333,6.944 48.1813333,7.344 49.312,8.144 C50.4426667,8.944 51.2746667,9.952 51.808,11.168 C52.3413333,12.384 52.608,13.632 52.608,14.912 L52.608,16.544 Z M48.544,13.408 C48.352,12.512 47.9733333,11.776 47.408,11.2 C46.8426667,10.624 46.0693333,10.336 45.088,10.336 C44.2346667,10.336 43.4986667,10.5973333 42.88,11.12 C42.2613333,11.6426667 41.824,12.4053333 41.568,13.408 L48.544,13.408 Z" id="Shape"></path>
            <path d="M73.952,23.584 C72.032,23.584 70.2666667,23.1413333 68.656,22.256 C67.0453333,21.3706667 65.76,20.064 64.8,18.336 C63.84,16.608 63.36,14.5386667 63.36,12.128 C63.36,9.71733333 63.84,7.648 64.8,5.92 C65.76,4.192 67.0453333,2.88533333 68.656,2 C70.2666667,1.11466667 72.032,0.672 73.952,0.672 C76.384,0.672 78.4053333,1.264 80.016,2.448 C81.6266667,3.632 82.6986667,5.30133333 83.232,7.456 L79.488,8.416 C79.0186667,7.17866667 78.3466667,6.21866667 77.472,5.536 C76.5973333,4.85333333 75.424,4.512 73.952,4.512 C72.7573333,4.512 71.68,4.79466667 70.72,5.36 C69.76,5.92533333 68.9973333,6.77866667 68.432,7.92 C67.8666667,9.06133333 67.584,10.464 67.584,12.128 C67.584,13.792 67.8666667,15.1946667 68.432,16.336 C68.9973333,17.4773333 69.76,18.3306667 70.72,18.896 C71.68,19.4613333 72.7573333,19.744 73.952,19.744 C75.424,19.744 76.5973333,19.4026667 77.472,18.72 C78.3466667,18.0373333 79.0186667,17.0773333 79.488,15.84 L83.232,16.8 C82.6986667,18.9546667 81.6266667,20.624 80.016,21.808 C78.4053333,22.992 76.384,23.584 73.952,23.584 Z" id="Path"></path>
            <path d="M103.52,0.928 C105.802667,0.928 107.541333,1.552 108.736,2.8 C109.930667,4.048 110.528,5.696 110.528,7.744 C110.528,9.792 109.930667,11.44 108.736,12.688 C107.541333,13.936 105.802667,14.56 103.52,14.56 L99.232,14.56 L99.232,23.328 L95.072,23.328 L95.072,0.928 L103.52,0.928 Z M103.36,10.72 C104.298667,10.72 105.024,10.4746667 105.536,9.984 C106.048,9.49333333 106.304,8.74666667 106.304,7.744 C106.304,6.74133333 106.048,5.99466667 105.536,5.504 C105.024,5.01333333 104.298667,4.768 103.36,4.768 L99.232,4.768 L99.232,10.72 L103.36,10.72 Z" id="Shape"></path>
            <path d="M117.248,7.2 L117.248,9.824 C117.824,8.90666667 118.528,8.19733333 119.36,7.696 C120.192,7.19466667 121.077333,6.944 122.016,6.944 C122.613333,6.944 123.264,7.05066667 123.968,7.264 L123.232,10.944 C122.741333,10.6453333 122.186667,10.496 121.568,10.496 C120.309333,10.496 119.274667,11.0666667 118.464,12.208 C117.653333,13.3493333 117.248,15.1466667 117.248,17.6 L117.248,23.328 L113.28,23.328 L113.28,7.2 L117.248,7.2 Z" id="Path"></path>
            <path d="M133.184,23.584 C131.498667,23.584 130.037333,23.2213333 128.8,22.496 C127.562667,21.7706667 126.618667,20.7786667 125.968,19.52 C125.317333,18.2613333 124.992,16.8426667 124.992,15.264 C124.992,13.6853333 125.317333,12.2666667 125.968,11.008 C126.618667,9.74933333 127.562667,8.75733333 128.8,8.032 C130.037333,7.30666667 131.498667,6.944 133.184,6.944 C134.869333,6.944 136.330667,7.30666667 137.568,8.032 C138.805333,8.75733333 139.749333,9.74933333 140.4,11.008 C141.050667,12.2666667 141.376,13.6853333 141.376,15.264 C141.376,16.8426667 141.050667,18.2613333 140.4,19.52 C139.749333,20.7786667 138.805333,21.7706667 137.568,22.496 C136.330667,23.2213333 134.869333,23.584 133.184,23.584 Z M133.184,20.192 C134.421333,20.192 135.402667,19.7173333 136.128,18.768 C136.853333,17.8186667 137.216,16.6506667 137.216,15.264 C137.216,13.8773333 136.853333,12.7093333 136.128,11.76 C135.402667,10.8106667 134.421333,10.336 133.184,10.336 C131.946667,10.336 130.965333,10.8106667 130.24,11.76 C129.514667,12.7093333 129.152,13.8773333 129.152,15.264 C129.152,16.6506667 129.514667,17.8186667 130.24,18.768 C130.965333,19.7173333 131.946667,20.192 133.184,20.192 Z" id="Shape"></path>
            <path d="M150.624,30.112 C148.469333,30.112 146.714667,29.6533333 145.36,28.736 C144.005333,27.8186667 143.328,26.5066667 143.328,24.8 C143.328,23.4773333 143.765333,22.4106667 144.64,21.6 C144.085333,20.9386667 143.808,20.1066667 143.808,19.104 C143.808,18.3573333 143.984,17.696 144.336,17.12 C144.688,16.544 145.173333,16.0746667 145.792,15.712 C145.045333,14.7946667 144.672,13.6853333 144.672,12.384 C144.672,11.296 144.933333,10.3413333 145.456,9.52 C145.978667,8.69866667 146.693333,8.064 147.6,7.616 C148.506667,7.168 149.504,6.944 150.592,6.944 C151.637333,6.944 152.629333,7.17866667 153.568,7.648 L156.608,6.048 L158.176,8.672 L155.872,9.824 C156.298667,10.5706667 156.512,11.424 156.512,12.384 C156.512,13.472 156.250667,14.4266667 155.728,15.248 C155.205333,16.0693333 154.490667,16.6933333 153.584,17.12 C152.677333,17.5466667 151.68,17.76 150.592,17.76 C149.781333,17.76 149.002667,17.6426667 148.256,17.408 C147.744,17.7066667 147.488,18.112 147.488,18.624 C147.488,19.008 147.616,19.3013333 147.872,19.504 C148.128,19.7066667 148.501333,19.808 148.992,19.808 L152.288,19.808 C154.016,19.808 155.392,20.2186667 156.416,21.04 C157.44,21.8613333 157.952,23.0293333 157.952,24.544 C157.952,25.8026667 157.605333,26.848 156.912,27.68 C156.218667,28.512 155.317333,29.1253333 154.208,29.52 C153.098667,29.9146667 151.904,30.112 150.624,30.112 Z M150.592,14.56 C151.232,14.56 151.76,14.3573333 152.176,13.952 C152.592,13.5466667 152.8,13.024 152.8,12.384 C152.8,11.7226667 152.592,11.184 152.176,10.768 C151.76,10.352 151.232,10.144 150.592,10.144 C149.952,10.144 149.424,10.352 149.008,10.768 C148.592,11.184 148.384,11.7226667 148.384,12.384 C148.384,13.024 148.592,13.5466667 149.008,13.952 C149.424,14.3573333 149.952,14.56 150.592,14.56 Z M150.624,26.784 C151.648,26.784 152.464,26.624 153.072,26.304 C153.68,25.984 153.984,25.4826667 153.984,24.8 C153.984,24.1813333 153.76,23.7493333 153.312,23.504 C152.864,23.2586667 152.224,23.136 151.392,23.136 L149.216,23.136 C148.490667,23.136 147.872,23.0933333 147.36,23.008 C147.125333,23.3706667 147.008,23.8613333 147.008,24.48 C147.008,25.2266667 147.338667,25.7973333 148,26.192 C148.661333,26.5866667 149.536,26.784 150.624,26.784 Z" id="Shape"></path>
            <path d="M164.576,7.2 L164.576,9.824 C165.152,8.90666667 165.856,8.19733333 166.688,7.696 C167.52,7.19466667 168.405333,6.944 169.344,6.944 C169.941333,6.944 170.592,7.05066667 171.296,7.264 L170.56,10.944 C170.069333,10.6453333 169.514667,10.496 168.896,10.496 C167.637333,10.496 166.602667,11.0666667 165.792,12.208 C164.981333,13.3493333 164.576,15.1466667 164.576,17.6 L164.576,23.328 L160.608,23.328 L160.608,7.2 L164.576,7.2 Z" id="Path"></path>
            <path d="M177.152,23.584 C175.722667,23.584 174.549333,23.1573333 173.632,22.304 C172.714667,21.4506667 172.256,20.2453333 172.256,18.688 C172.256,17.088 172.864,15.808 174.08,14.848 C175.296,13.888 176.938667,13.408 179.008,13.408 L181.824,13.408 L181.824,12.704 C181.824,11.9146667 181.557333,11.3226667 181.024,10.928 C180.490667,10.5333333 179.818667,10.336 179.008,10.336 C177.621333,10.336 176.693333,10.9546667 176.224,12.192 L172.864,11.424 C173.12,10.08 173.808,8.99733333 174.928,8.176 C176.048,7.35466667 177.408,6.944 179.008,6.944 C181.162667,6.944 182.832,7.51466667 184.016,8.656 C185.2,9.79733333 185.792,11.4773333 185.792,13.696 L185.792,23.328 L182.528,23.328 L182.112,21.28 C180.853333,22.816 179.2,23.584 177.152,23.584 Z M178.208,20.192 C179.168,20.192 180.010667,19.888 180.736,19.28 C181.461333,18.672 181.824,17.8666667 181.824,16.864 L181.824,16.544 L179.168,16.544 C178.293333,16.544 177.616,16.7146667 177.136,17.056 C176.656,17.3973333 176.416,17.92 176.416,18.624 C176.416,19.0933333 176.581333,19.472 176.912,19.76 C177.242667,20.048 177.674667,20.192 178.208,20.192 Z" id="Shape"></path>
            <path d="M193.792,7.2 L193.792,9.792 C194.410667,8.85333333 195.088,8.144 195.824,7.664 C196.56,7.184 197.429333,6.944 198.432,6.944 C199.477333,6.944 200.405333,7.22133333 201.216,7.776 C202.026667,8.33066667 202.602667,9.16266667 202.944,10.272 C203.52,9.22666667 204.24,8.41066667 205.104,7.824 C205.968,7.23733333 206.890667,6.944 207.872,6.944 C209.365333,6.944 210.538667,7.38133333 211.392,8.256 C212.245333,9.13066667 212.672,10.3466667 212.672,11.904 L212.672,23.328 L208.704,23.328 L208.704,12.576 C208.704,11.0826667 208.042667,10.336 206.72,10.336 C205.696,10.336 204.858667,10.912 204.208,12.064 C203.557333,13.216 203.232,14.88 203.232,17.056 L203.232,23.328 L199.264,23.328 L199.264,12.576 C199.264,11.0826667 198.602667,10.336 197.28,10.336 C196.256,10.336 195.418667,10.9386667 194.768,12.144 C194.117333,13.3493333 193.792,15.104 193.792,17.408 L193.792,23.328 L189.824,23.328 L189.824,7.2 L193.792,7.2 Z" id="Path"></path>
            <path d="M220.992,7.2 L220.992,9.792 C221.610667,8.85333333 222.288,8.144 223.024,7.664 C223.76,7.184 224.629333,6.944 225.632,6.944 C226.677333,6.944 227.605333,7.22133333 228.416,7.776 C229.226667,8.33066667 229.802667,9.16266667 230.144,10.272 C230.72,9.22666667 231.44,8.41066667 232.304,7.824 C233.168,7.23733333 234.090667,6.944 235.072,6.944 C236.565333,6.944 237.738667,7.38133333 238.592,8.256 C239.445333,9.13066667 239.872,10.3466667 239.872,11.904 L239.872,23.328 L235.904,23.328 L235.904,12.576 C235.904,11.0826667 235.242667,10.336 233.92,10.336 C232.896,10.336 232.058667,10.912 231.408,12.064 C230.757333,13.216 230.432,14.88 230.432,17.056 L230.432,23.328 L226.464,23.328 L226.464,12.576 C226.464,11.0826667 225.802667,10.336 224.48,10.336 C223.456,10.336 222.618667,10.9386667 221.968,12.144 C221.317333,13.3493333 220.992,15.104 220.992,17.408 L220.992,23.328 L217.024,23.328 L217.024,7.2 L220.992,7.2 Z" id="Path"></path>
            <path d="M244.224,7.2 L248.192,7.2 L248.192,23.328 L244.224,23.328 L244.224,7.2 Z M246.208,5.12 C245.482667,5.12 244.874667,4.87466667 244.384,4.384 C243.893333,3.89333333 243.648,3.28533333 243.648,2.56 C243.648,1.83466667 243.893333,1.22666667 244.384,0.736 C244.874667,0.245333333 245.482667,0 246.208,0 C246.933333,0 247.541333,0.245333333 248.032,0.736 C248.522667,1.22666667 248.768,1.83466667 248.768,2.56 C248.768,3.28533333 248.522667,3.89333333 248.032,4.384 C247.541333,4.87466667 246.933333,5.12 246.208,5.12 Z" id="Shape"></path>
            <path d="M256.512,7.2 L256.512,9.792 C257.130667,8.91733333 257.866667,8.224 258.72,7.712 C259.573333,7.2 260.501333,6.944 261.504,6.944 C262.997333,6.944 264.197333,7.36 265.104,8.192 C266.010667,9.024 266.464,10.2293333 266.464,11.808 L266.464,23.328 L262.496,23.328 L262.496,12.992 C262.496,12.0746667 262.288,11.4026667 261.872,10.976 C261.456,10.5493333 260.896,10.336 260.192,10.336 C259.530667,10.336 258.922667,10.592 258.368,11.104 C257.813333,11.616 257.365333,12.368 257.024,13.36 C256.682667,14.352 256.512,15.5306667 256.512,16.896 L256.512,23.328 L252.544,23.328 L252.544,7.2 L256.512,7.2 Z" id="Path"></path>
            <path d="M276.576,30.112 C274.421333,30.112 272.666667,29.6533333 271.312,28.736 C269.957333,27.8186667 269.28,26.5066667 269.28,24.8 C269.28,23.4773333 269.717333,22.4106667 270.592,21.6 C270.037333,20.9386667 269.76,20.1066667 269.76,19.104 C269.76,18.3573333 269.936,17.696 270.288,17.12 C270.64,16.544 271.125333,16.0746667 271.744,15.712 C270.997333,14.7946667 270.624,13.6853333 270.624,12.384 C270.624,11.296 270.885333,10.3413333 271.408,9.52 C271.930667,8.69866667 272.645333,8.064 273.552,7.616 C274.458667,7.168 275.456,6.944 276.544,6.944 C277.589333,6.944 278.581333,7.17866667 279.52,7.648 L282.56,6.048 L284.128,8.672 L281.824,9.824 C282.250667,10.5706667 282.464,11.424 282.464,12.384 C282.464,13.472 282.202667,14.4266667 281.68,15.248 C281.157333,16.0693333 280.442667,16.6933333 279.536,17.12 C278.629333,17.5466667 277.632,17.76 276.544,17.76 C275.733333,17.76 274.954667,17.6426667 274.208,17.408 C273.696,17.7066667 273.44,18.112 273.44,18.624 C273.44,19.008 273.568,19.3013333 273.824,19.504 C274.08,19.7066667 274.453333,19.808 274.944,19.808 L278.24,19.808 C279.968,19.808 281.344,20.2186667 282.368,21.04 C283.392,21.8613333 283.904,23.0293333 283.904,24.544 C283.904,25.8026667 283.557333,26.848 282.864,27.68 C282.170667,28.512 281.269333,29.1253333 280.16,29.52 C279.050667,29.9146667 277.856,30.112 276.576,30.112 Z M276.544,14.56 C277.184,14.56 277.712,14.3573333 278.128,13.952 C278.544,13.5466667 278.752,13.024 278.752,12.384 C278.752,11.7226667 278.544,11.184 278.128,10.768 C277.712,10.352 277.184,10.144 276.544,10.144 C275.904,10.144 275.376,10.352 274.96,10.768 C274.544,11.184 274.336,11.7226667 274.336,12.384 C274.336,13.024 274.544,13.5466667 274.96,13.952 C275.376,14.3573333 275.904,14.56 276.544,14.56 Z M276.576,26.784 C277.6,26.784 278.416,26.624 279.024,26.304 C279.632,25.984 279.936,25.4826667 279.936,24.8 C279.936,24.1813333 279.712,23.7493333 279.264,23.504 C278.816,23.2586667 278.176,23.136 277.344,23.136 L275.168,23.136 C274.442667,23.136 273.824,23.0933333 273.312,23.008 C273.077333,23.3706667 272.96,23.8613333 272.96,24.48 C272.96,25.2266667 273.290667,25.7973333 273.952,26.192 C274.613333,26.5866667 275.488,26.784 276.576,26.784 Z" id="Shape"></path>
            <polygon id="Path" points="295.072 0.928 299.232 0.928 299.232 19.488 308.736 19.488 308.736 23.328 295.072 23.328"></polygon>
            <path d="M316,23.584 C314.570667,23.584 313.397333,23.1573333 312.48,22.304 C311.562667,21.4506667 311.104,20.2453333 311.104,18.688 C311.104,17.088 311.712,15.808 312.928,14.848 C314.144,13.888 315.786667,13.408 317.856,13.408 L320.672,13.408 L320.672,12.704 C320.672,11.9146667 320.405333,11.3226667 319.872,10.928 C319.338667,10.5333333 318.666667,10.336 317.856,10.336 C316.469333,10.336 315.541333,10.9546667 315.072,12.192 L311.712,11.424 C311.968,10.08 312.656,8.99733333 313.776,8.176 C314.896,7.35466667 316.256,6.944 317.856,6.944 C320.010667,6.944 321.68,7.51466667 322.864,8.656 C324.048,9.79733333 324.64,11.4773333 324.64,13.696 L324.64,23.328 L321.376,23.328 L320.96,21.28 C319.701333,22.816 318.048,23.584 316,23.584 Z M317.056,20.192 C318.016,20.192 318.858667,19.888 319.584,19.28 C320.309333,18.672 320.672,17.8666667 320.672,16.864 L320.672,16.544 L318.016,16.544 C317.141333,16.544 316.464,16.7146667 315.984,17.056 C315.504,17.3973333 315.264,17.92 315.264,18.624 C315.264,19.0933333 315.429333,19.472 315.76,19.76 C316.090667,20.048 316.522667,20.192 317.056,20.192 Z" id="Shape"></path>
            <path d="M332.64,7.2 L332.64,9.792 C333.258667,8.91733333 333.994667,8.224 334.848,7.712 C335.701333,7.2 336.629333,6.944 337.632,6.944 C339.125333,6.944 340.325333,7.36 341.232,8.192 C342.138667,9.024 342.592,10.2293333 342.592,11.808 L342.592,23.328 L338.624,23.328 L338.624,12.992 C338.624,12.0746667 338.416,11.4026667 338,10.976 C337.584,10.5493333 337.024,10.336 336.32,10.336 C335.658667,10.336 335.050667,10.592 334.496,11.104 C333.941333,11.616 333.493333,12.368 333.152,13.36 C332.810667,14.352 332.64,15.5306667 332.64,16.896 L332.64,23.328 L328.672,23.328 L328.672,7.2 L332.64,7.2 Z" id="Path"></path>
            <path d="M352.704,30.112 C350.549333,30.112 348.794667,29.6533333 347.44,28.736 C346.085333,27.8186667 345.408,26.5066667 345.408,24.8 C345.408,23.4773333 345.845333,22.4106667 346.72,21.6 C346.165333,20.9386667 345.888,20.1066667 345.888,19.104 C345.888,18.3573333 346.064,17.696 346.416,17.12 C346.768,16.544 347.253333,16.0746667 347.872,15.712 C347.125333,14.7946667 346.752,13.6853333 346.752,12.384 C346.752,11.296 347.013333,10.3413333 347.536,9.52 C348.058667,8.69866667 348.773333,8.064 349.68,7.616 C350.586667,7.168 351.584,6.944 352.672,6.944 C353.717333,6.944 354.709333,7.17866667 355.648,7.648 L358.688,6.048 L360.256,8.672 L357.952,9.824 C358.378667,10.5706667 358.592,11.424 358.592,12.384 C358.592,13.472 358.330667,14.4266667 357.808,15.248 C357.285333,16.0693333 356.570667,16.6933333 355.664,17.12 C354.757333,17.5466667 353.76,17.76 352.672,17.76 C351.861333,17.76 351.082667,17.6426667 350.336,17.408 C349.824,17.7066667 349.568,18.112 349.568,18.624 C349.568,19.008 349.696,19.3013333 349.952,19.504 C350.208,19.7066667 350.581333,19.808 351.072,19.808 L354.368,19.808 C356.096,19.808 357.472,20.2186667 358.496,21.04 C359.52,21.8613333 360.032,23.0293333 360.032,24.544 C360.032,25.8026667 359.685333,26.848 358.992,27.68 C358.298667,28.512 357.397333,29.1253333 356.288,29.52 C355.178667,29.9146667 353.984,30.112 352.704,30.112 Z M352.672,14.56 C353.312,14.56 353.84,14.3573333 354.256,13.952 C354.672,13.5466667 354.88,13.024 354.88,12.384 C354.88,11.7226667 354.672,11.184 354.256,10.768 C353.84,10.352 353.312,10.144 352.672,10.144 C352.032,10.144 351.504,10.352 351.088,10.768 C350.672,11.184 350.464,11.7226667 350.464,12.384 C350.464,13.024 350.672,13.5466667 351.088,13.952 C351.504,14.3573333 352.032,14.56 352.672,14.56 Z M352.704,26.784 C353.728,26.784 354.544,26.624 355.152,26.304 C355.76,25.984 356.064,25.4826667 356.064,24.8 C356.064,24.1813333 355.84,23.7493333 355.392,23.504 C354.944,23.2586667 354.304,23.136 353.472,23.136 L351.296,23.136 C350.570667,23.136 349.952,23.0933333 349.44,23.008 C349.205333,23.3706667 349.088,23.8613333 349.088,24.48 C349.088,25.2266667 349.418667,25.7973333 350.08,26.192 C350.741333,26.5866667 351.616,26.784 352.704,26.784 Z" id="Shape"></path>
            <path d="M367.584,23.584 C366.090667,23.584 364.890667,23.168 363.984,22.336 C363.077333,21.504 362.624,20.2986667 362.624,18.72 L362.624,7.2 L366.592,7.2 L366.592,17.536 C366.592,18.4533333 366.8,19.1253333 367.216,19.552 C367.632,19.9786667 368.192,20.192 368.896,20.192 C369.557333,20.192 370.165333,19.936 370.72,19.424 C371.274667,18.912 371.722667,18.16 372.064,17.168 C372.405333,16.176 372.576,14.9973333 372.576,13.632 L372.576,7.2 L376.544,7.2 L376.544,23.328 L372.576,23.328 L372.576,20.736 C371.957333,21.6106667 371.221333,22.304 370.368,22.816 C369.514667,23.328 368.586667,23.584 367.584,23.584 Z" id="Path"></path>
            <path d="M385.088,23.584 C383.658667,23.584 382.485333,23.1573333 381.568,22.304 C380.650667,21.4506667 380.192,20.2453333 380.192,18.688 C380.192,17.088 380.8,15.808 382.016,14.848 C383.232,13.888 384.874667,13.408 386.944,13.408 L389.76,13.408 L389.76,12.704 C389.76,11.9146667 389.493333,11.3226667 388.96,10.928 C388.426667,10.5333333 387.754667,10.336 386.944,10.336 C385.557333,10.336 384.629333,10.9546667 384.16,12.192 L380.8,11.424 C381.056,10.08 381.744,8.99733333 382.864,8.176 C383.984,7.35466667 385.344,6.944 386.944,6.944 C389.098667,6.944 390.768,7.51466667 391.952,8.656 C393.136,9.79733333 393.728,11.4773333 393.728,13.696 L393.728,23.328 L390.464,23.328 L390.048,21.28 C388.789333,22.816 387.136,23.584 385.088,23.584 Z M386.144,20.192 C387.104,20.192 387.946667,19.888 388.672,19.28 C389.397333,18.672 389.76,17.8666667 389.76,16.864 L389.76,16.544 L387.104,16.544 C386.229333,16.544 385.552,16.7146667 385.072,17.056 C384.592,17.3973333 384.352,17.92 384.352,18.624 C384.352,19.0933333 384.517333,19.472 384.848,19.76 C385.178667,20.048 385.610667,20.192 386.144,20.192 Z" id="Shape"></path>
            <path d="M403.84,30.112 C401.685333,30.112 399.930667,29.6533333 398.576,28.736 C397.221333,27.8186667 396.544,26.5066667 396.544,24.8 C396.544,23.4773333 396.981333,22.4106667 397.856,21.6 C397.301333,20.9386667 397.024,20.1066667 397.024,19.104 C397.024,18.3573333 397.2,17.696 397.552,17.12 C397.904,16.544 398.389333,16.0746667 399.008,15.712 C398.261333,14.7946667 397.888,13.6853333 397.888,12.384 C397.888,11.296 398.149333,10.3413333 398.672,9.52 C399.194667,8.69866667 399.909333,8.064 400.816,7.616 C401.722667,7.168 402.72,6.944 403.808,6.944 C404.853333,6.944 405.845333,7.17866667 406.784,7.648 L409.824,6.048 L411.392,8.672 L409.088,9.824 C409.514667,10.5706667 409.728,11.424 409.728,12.384 C409.728,13.472 409.466667,14.4266667 408.944,15.248 C408.421333,16.0693333 407.706667,16.6933333 406.8,17.12 C405.893333,17.5466667 404.896,17.76 403.808,17.76 C402.997333,17.76 402.218667,17.6426667 401.472,17.408 C400.96,17.7066667 400.704,18.112 400.704,18.624 C400.704,19.008 400.832,19.3013333 401.088,19.504 C401.344,19.7066667 401.717333,19.808 402.208,19.808 L405.504,19.808 C407.232,19.808 408.608,20.2186667 409.632,21.04 C410.656,21.8613333 411.168,23.0293333 411.168,24.544 C411.168,25.8026667 410.821333,26.848 410.128,27.68 C409.434667,28.512 408.533333,29.1253333 407.424,29.52 C406.314667,29.9146667 405.12,30.112 403.84,30.112 Z M403.808,14.56 C404.448,14.56 404.976,14.3573333 405.392,13.952 C405.808,13.5466667 406.016,13.024 406.016,12.384 C406.016,11.7226667 405.808,11.184 405.392,10.768 C404.976,10.352 404.448,10.144 403.808,10.144 C403.168,10.144 402.64,10.352 402.224,10.768 C401.808,11.184 401.6,11.7226667 401.6,12.384 C401.6,13.024 401.808,13.5466667 402.224,13.952 C402.64,14.3573333 403.168,14.56 403.808,14.56 Z M403.84,26.784 C404.864,26.784 405.68,26.624 406.288,26.304 C406.896,25.984 407.2,25.4826667 407.2,24.8 C407.2,24.1813333 406.976,23.7493333 406.528,23.504 C406.08,23.2586667 405.44,23.136 404.608,23.136 L402.432,23.136 C401.706667,23.136 401.088,23.0933333 400.576,23.008 C400.341333,23.3706667 400.224,23.8613333 400.224,24.48 C400.224,25.2266667 400.554667,25.7973333 401.216,26.192 C401.877333,26.5866667 402.752,26.784 403.84,26.784 Z" id="Shape"></path>
            <path d="M428.192,16.544 L417.056,16.544 C417.226667,17.7386667 417.648,18.6453333 418.32,19.264 C418.992,19.8826667 419.850667,20.192 420.896,20.192 C421.792,20.192 422.544,19.9893333 423.152,19.584 C423.76,19.1786667 424.309333,18.5493333 424.8,17.696 L428,18.88 C427.338667,20.3946667 426.416,21.5573333 425.232,22.368 C424.048,23.1786667 422.528,23.584 420.672,23.584 C418.922667,23.584 417.466667,23.1733333 416.304,22.352 C415.141333,21.5306667 414.288,20.4853333 413.744,19.216 C413.2,17.9466667 412.928,16.6293333 412.928,15.264 C412.928,13.8986667 413.2,12.5813333 413.744,11.312 C414.288,10.0426667 415.141333,8.99733333 416.304,8.176 C417.466667,7.35466667 418.922667,6.944 420.672,6.944 C422.357333,6.944 423.765333,7.344 424.896,8.144 C426.026667,8.944 426.858667,9.952 427.392,11.168 C427.925333,12.384 428.192,13.632 428.192,14.912 L428.192,16.544 Z M424.128,13.408 C423.936,12.512 423.557333,11.776 422.992,11.2 C422.426667,10.624 421.653333,10.336 420.672,10.336 C419.818667,10.336 419.082667,10.5973333 418.464,11.12 C417.845333,11.6426667 417.408,12.4053333 417.152,13.408 L424.128,13.408 Z" id="Shape"></path>
        </g>
        <g id="Operating-Systems" transform="translate(721.728000, 201.668000)" fill="#FFFFFF" fill-rule="nonzero">
            <path d="M3.794,0 C1.26,0 0,2.184 0,5.25 C0,8.302 1.26,10.514 3.794,10.514 C6.328,10.514 7.588,8.302 7.588,5.25 C7.588,2.184 6.328,0 3.794,0 Z M3.794,1.232 C5.474,1.232 6.216,2.688 6.216,5.25 C6.216,7.812 5.474,9.282 3.794,9.282 C2.128,9.282 1.372,7.812 1.372,5.25 C1.372,2.688 2.128,1.232 3.794,1.232 Z" id="Shape"></path>
            <path d="M11.144,2.8 L9.856,2.8 L9.856,12.782 L11.144,12.782 L11.144,9.268 C11.564,9.982 12.25,10.514 13.37,10.514 C15.106,10.514 16.408,9.086 16.408,6.594 C16.408,4.116 15.106,2.674 13.37,2.674 C12.25,2.674 11.564,3.206 11.144,3.934 L11.144,2.8 Z M11.088,6.594 C11.088,4.606 12.026,3.752 13.104,3.752 C14.392,3.752 15.05,4.802 15.05,6.594 C15.05,8.386 14.392,9.45 13.104,9.45 C12.026,9.45 11.088,8.582 11.088,6.594 Z" id="Shape"></path>
            <path d="M21.924,10.514 C23.688,10.514 24.864,9.506 25.172,8.078 L23.842,8.078 C23.576,8.932 23.016,9.464 21.896,9.464 C20.706,9.464 19.866,8.47 19.866,6.958 L25.284,6.958 C25.382,4.27 24.122,2.66 21.924,2.66 C19.936,2.66 18.508,4.172 18.508,6.594 C18.508,8.82 19.642,10.514 21.924,10.514 Z M21.924,3.724 C23.24,3.724 23.926,4.662 23.912,5.894 L19.88,5.894 C19.936,4.438 20.706,3.724 21.924,3.724 Z" id="Shape"></path>
            <path d="M27.608,2.8 L27.608,3.906 L29.75,3.906 L29.75,9.226 L27.622,9.226 L27.622,10.332 L33.614,10.332 L33.614,9.226 L31.038,9.226 L31.038,6.58 C31.038,4.928 31.598,3.976 33.04,3.976 L34.314,3.976 L34.314,2.8 L33.026,2.8 C32.102,2.8 31.374,3.304 31.01,4.144 L31.01,2.8 L27.608,2.8 Z" id="Path"></path>
            <path d="M39.214,10.514 C40.614,10.514 41.398,10.01 41.86,9.226 L41.874,10.332 L43.106,10.332 C43.064,9.828 42.994,8.75 43.008,7.49 L43.022,5.656 C43.05,3.57 42.154,2.646 40.068,2.646 C38.5,2.646 37.072,3.556 36.946,5.18 L38.262,5.18 C38.346,4.256 38.892,3.682 40.054,3.682 C41.034,3.682 41.748,4.074 41.748,5.376 L41.748,5.698 C38.668,6.034 36.764,6.58 36.764,8.372 C36.764,9.73 37.856,10.514 39.214,10.514 Z M41.846,6.93 C41.846,8.932 40.726,9.478 39.578,9.478 C38.668,9.478 38.15,9.058 38.15,8.344 C38.15,7.266 39.55,6.944 41.846,6.72 L41.846,6.93 Z" id="Shape"></path>
            <path d="M47.25,2.8 L45.108,2.8 L45.108,3.906 L47.25,3.906 L47.25,8.442 C47.25,10.01 47.642,10.332 49.014,10.332 L51.618,10.332 L51.618,9.226 L49.294,9.226 C48.58,9.226 48.538,9.03 48.538,8.26 L48.538,3.906 L51.618,3.906 L51.618,2.8 L48.538,2.8 L48.538,0.91 L47.25,0.91 L47.25,2.8 Z" id="Path"></path>
            <path d="M57.54,0.182 L57.54,1.708 L58.828,1.708 L58.828,0.182 L57.54,0.182 Z M55.412,2.8 L55.412,3.906 L57.54,3.906 L57.54,9.226 L55.412,9.226 L55.412,10.332 L60.97,10.332 L60.97,9.226 L58.828,9.226 L58.828,2.8 L55.412,2.8 Z" id="Shape"></path>
            <path d="M65.464,2.8 L64.176,2.8 L64.176,10.332 L65.464,10.332 L65.464,6.244 C65.464,4.634 66.094,3.766 67.256,3.766 C68.656,3.766 68.754,4.774 68.754,5.992 L68.754,10.332 L70.042,10.332 L70.042,5.544 C70.042,3.878 69.496,2.674 67.676,2.674 C66.486,2.674 65.842,3.22 65.464,3.864 L65.464,2.8 Z" id="Path"></path>
            <path d="M77.868,3.934 C77.448,3.206 76.776,2.674 75.642,2.674 C73.906,2.674 72.604,3.962 72.604,6.44 C72.604,8.932 73.906,10.206 75.642,10.206 C76.776,10.206 77.448,9.688 77.868,8.96 L77.868,9.688 C77.868,10.71 77.728,11.06 77.476,11.354 C77.168,11.718 76.58,11.914 75.936,11.914 C74.83,11.914 74.438,11.452 74.256,10.766 L72.898,10.766 C73.122,12.25 74.284,13.034 75.922,13.034 C76.986,13.034 78.022,12.67 78.554,12.04 C78.96,11.564 79.156,10.934 79.156,9.394 L79.156,2.8 L77.868,2.8 L77.868,3.934 Z M77.924,6.44 C77.924,8.414 76.986,9.142 75.908,9.142 C74.62,9.142 73.962,8.232 73.962,6.44 C73.962,4.648 74.62,3.752 75.908,3.752 C76.986,3.752 77.924,4.452 77.924,6.44 Z" id="Shape"></path>
            <path d="M93.422,5.544 L94.528,5.81 C95.634,6.062 96.432,6.538 96.432,7.588 C96.432,8.75 95.396,9.282 94.388,9.282 C93.086,9.282 92.134,8.526 91.994,7.168 L90.678,7.168 C90.79,9.184 92.288,10.514 94.346,10.514 C96.306,10.514 97.776,9.38 97.776,7.49 C97.776,5.558 96.348,4.844 94.71,4.48 L93.702,4.256 C92.89,4.074 92.232,3.64 92.232,2.744 C92.232,1.694 93.198,1.232 94.122,1.232 C95.046,1.232 96.096,1.638 96.25,2.856 L97.566,2.856 C97.342,0.84 95.76,0 94.192,0 C92.372,0 90.86,1.036 90.86,2.786 C90.86,4.396 92.092,5.25 93.422,5.544 Z" id="Path"></path>
            <path d="M101.318,12.782 C102.914,12.782 103.334,12.138 103.866,10.654 L106.652,2.8 L105.322,2.8 L103.32,8.61 L101.276,2.8 L99.862,2.8 L102.676,10.332 L102.62,10.5 C102.228,11.578 101.976,11.676 101.192,11.676 L99.834,11.676 L99.834,12.782 L101.318,12.782 Z" id="Path"></path>
            <path d="M115.22,4.858 C114.94,3.514 113.848,2.674 112.252,2.674 C110.992,2.674 109.41,3.304 109.41,4.76 C109.41,6.062 110.348,6.65 111.538,6.888 L112.476,7.07 C113.428,7.238 114.058,7.588 114.058,8.288 C114.058,9.17 113.176,9.45 112.378,9.45 C111.328,9.45 110.796,8.946 110.628,8.078 L109.27,8.078 C109.41,9.282 110.39,10.514 112.35,10.514 C113.988,10.514 115.36,9.73 115.36,8.134 C115.36,6.622 113.96,6.132 112.658,5.88 L111.818,5.712 C111.076,5.558 110.684,5.292 110.684,4.704 C110.684,4.032 111.44,3.738 112.196,3.738 C113.05,3.738 113.708,4.018 113.876,4.858 L115.22,4.858 Z" id="Path"></path>
            <path d="M119.602,2.8 L117.46,2.8 L117.46,3.906 L119.602,3.906 L119.602,8.442 C119.602,10.01 119.994,10.332 121.366,10.332 L123.97,10.332 L123.97,9.226 L121.646,9.226 C120.932,9.226 120.89,9.03 120.89,8.26 L120.89,3.906 L123.97,3.906 L123.97,2.8 L120.89,2.8 L120.89,0.91 L119.602,0.91 L119.602,2.8 Z" id="Path"></path>
            <path d="M130.452,10.514 C132.216,10.514 133.392,9.506 133.7,8.078 L132.37,8.078 C132.104,8.932 131.544,9.464 130.424,9.464 C129.234,9.464 128.394,8.47 128.394,6.958 L133.812,6.958 C133.91,4.27 132.65,2.66 130.452,2.66 C128.464,2.66 127.036,4.172 127.036,6.594 C127.036,8.82 128.17,10.514 130.452,10.514 Z M130.452,3.724 C131.768,3.724 132.454,4.662 132.44,5.894 L128.408,5.894 C128.464,4.438 129.234,3.724 130.452,3.724 Z" id="Shape"></path>
            <path d="M139.832,3.626 C139.664,3.122 139.342,2.674 138.656,2.674 C137.942,2.674 137.536,3.108 137.284,3.598 L137.284,2.8 L136.052,2.8 L136.052,10.332 L137.34,10.332 L137.34,6.09 C137.34,4.522 137.536,3.752 138.194,3.752 C138.824,3.752 138.824,4.592 138.824,5.684 L138.824,10.332 L140.112,10.332 L140.112,6.062 C140.112,4.508 140.308,3.752 140.952,3.752 C141.596,3.752 141.596,4.592 141.596,5.684 L141.596,10.332 L142.884,10.332 L142.884,5.026 C142.884,3.038 142.114,2.674 141.33,2.674 C140.644,2.674 140.154,3.038 139.832,3.626 Z" id="Path"></path>
            <path d="M151.396,4.858 C151.116,3.514 150.024,2.674 148.428,2.674 C147.168,2.674 145.586,3.304 145.586,4.76 C145.586,6.062 146.524,6.65 147.714,6.888 L148.652,7.07 C149.604,7.238 150.234,7.588 150.234,8.288 C150.234,9.17 149.352,9.45 148.554,9.45 C147.504,9.45 146.972,8.946 146.804,8.078 L145.446,8.078 C145.586,9.282 146.566,10.514 148.526,10.514 C150.164,10.514 151.536,9.73 151.536,8.134 C151.536,6.622 150.136,6.132 148.834,5.88 L147.994,5.712 C147.252,5.558 146.86,5.292 146.86,4.704 C146.86,4.032 147.616,3.738 148.372,3.738 C149.226,3.738 149.884,4.018 150.052,4.858 L151.396,4.858 Z" id="Path"></path>
        </g>
        <g id="Applications" transform="translate(349.476000, 201.850000)" fill="#FFFFFF" fill-rule="nonzero">
            <path d="M4.76,2.84217094e-14 L3.332,2.84217094e-14 L0,10.15 L1.428,10.15 L2.1,7.98 L5.978,7.98 L6.664,10.15 L8.092,10.15 L4.76,2.84217094e-14 Z M4.046,1.778 L5.586,6.734 L2.492,6.734 L4.046,1.778 Z" id="Shape"></path>
            <path d="M11.396,2.618 L10.108,2.618 L10.108,12.6 L11.396,12.6 L11.396,9.086 C11.816,9.8 12.502,10.332 13.622,10.332 C15.358,10.332 16.66,8.904 16.66,6.412 C16.66,3.934 15.358,2.492 13.622,2.492 C12.502,2.492 11.816,3.024 11.396,3.752 L11.396,2.618 Z M11.34,6.412 C11.34,4.424 12.278,3.57 13.356,3.57 C14.644,3.57 15.302,4.62 15.302,6.412 C15.302,8.204 14.644,9.268 13.356,9.268 C12.278,9.268 11.34,8.4 11.34,6.412 Z" id="Shape"></path>
            <path d="M20.44,2.618 L19.152,2.618 L19.152,12.6 L20.44,12.6 L20.44,9.086 C20.86,9.8 21.546,10.332 22.666,10.332 C24.402,10.332 25.704,8.904 25.704,6.412 C25.704,3.934 24.402,2.492 22.666,2.492 C21.546,2.492 20.86,3.024 20.44,3.752 L20.44,2.618 Z M20.384,6.412 C20.384,4.424 21.322,3.57 22.4,3.57 C23.688,3.57 24.346,4.62 24.346,6.412 C24.346,8.204 23.688,9.268 22.4,9.268 C21.322,9.268 20.384,8.4 20.384,6.412 Z" id="Shape"></path>
            <polygon id="Path" points="28.448 2.84217094e-14 28.448 1.092 30.576 1.092 30.576 9.044 28.448 9.044 28.448 10.15 34.006 10.15 34.006 9.044 31.864 9.044 31.864 2.84217094e-14"></polygon>
            <path d="M39.704,2.84217094e-14 L39.704,1.526 L40.992,1.526 L40.992,2.84217094e-14 L39.704,2.84217094e-14 Z M37.576,2.618 L37.576,3.724 L39.704,3.724 L39.704,9.044 L37.576,9.044 L37.576,10.15 L43.134,10.15 L43.134,9.044 L40.992,9.044 L40.992,2.618 L37.576,2.618 Z" id="Shape"></path>
            <path d="M49.406,2.492 C47.25,2.492 45.948,4.172 45.948,6.412 C45.948,8.708 47.194,10.332 49.28,10.332 C50.96,10.332 52.304,9.226 52.514,7.728 L51.184,7.728 C51.016,8.54 50.372,9.282 49.35,9.282 C48.23,9.282 47.306,8.33 47.306,6.412 C47.306,4.522 48.23,3.556 49.35,3.556 C50.274,3.556 50.96,4.2 51.128,5.124 L52.43,5.124 C52.318,3.766 51.156,2.492 49.406,2.492 Z" id="Path"></path>
            <path d="M57.554,10.332 C58.954,10.332 59.738,9.828 60.2,9.044 L60.214,10.15 L61.446,10.15 C61.404,9.646 61.334,8.568 61.348,7.308 L61.362,5.474 C61.39,3.388 60.494,2.464 58.408,2.464 C56.84,2.464 55.412,3.374 55.286,4.998 L56.602,4.998 C56.686,4.074 57.232,3.5 58.394,3.5 C59.374,3.5 60.088,3.892 60.088,5.194 L60.088,5.516 C57.008,5.852 55.104,6.398 55.104,8.19 C55.104,9.548 56.196,10.332 57.554,10.332 Z M60.186,6.748 C60.186,8.75 59.066,9.296 57.918,9.296 C57.008,9.296 56.49,8.876 56.49,8.162 C56.49,7.084 57.89,6.762 60.186,6.538 L60.186,6.748 Z" id="Shape"></path>
            <path d="M65.59,2.618 L63.448,2.618 L63.448,3.724 L65.59,3.724 L65.59,8.26 C65.59,9.828 65.982,10.15 67.354,10.15 L69.958,10.15 L69.958,9.044 L67.634,9.044 C66.92,9.044 66.878,8.848 66.878,8.078 L66.878,3.724 L69.958,3.724 L69.958,2.618 L66.878,2.618 L66.878,0.728 L65.59,0.728 L65.59,2.618 Z" id="Path"></path>
            <path d="M75.88,2.84217094e-14 L75.88,1.526 L77.168,1.526 L77.168,2.84217094e-14 L75.88,2.84217094e-14 Z M73.752,2.618 L73.752,3.724 L75.88,3.724 L75.88,9.044 L73.752,9.044 L73.752,10.15 L79.31,10.15 L79.31,9.044 L77.168,9.044 L77.168,2.618 L73.752,2.618 Z" id="Shape"></path>
            <path d="M83.314,6.412 C83.314,4.41 84.294,3.57 85.442,3.57 C86.59,3.57 87.57,4.41 87.57,6.412 C87.57,8.414 86.59,9.254 85.442,9.254 C84.294,9.254 83.314,8.414 83.314,6.412 Z M81.956,6.412 C81.956,9.142 83.72,10.332 85.442,10.332 C87.164,10.332 88.928,9.142 88.928,6.412 C88.928,3.682 87.164,2.492 85.442,2.492 C83.72,2.492 81.956,3.682 81.956,6.412 Z" id="Shape"></path>
            <path d="M92.848,2.618 L91.56,2.618 L91.56,10.15 L92.848,10.15 L92.848,6.062 C92.848,4.452 93.478,3.584 94.64,3.584 C96.04,3.584 96.138,4.592 96.138,5.81 L96.138,10.15 L97.426,10.15 L97.426,5.362 C97.426,3.696 96.88,2.492 95.06,2.492 C93.87,2.492 93.226,3.038 92.848,3.682 L92.848,2.618 Z" id="Path"></path>
            <path d="M106.428,4.676 C106.148,3.332 105.056,2.492 103.46,2.492 C102.2,2.492 100.618,3.122 100.618,4.578 C100.618,5.88 101.556,6.468 102.746,6.706 L103.684,6.888 C104.636,7.056 105.266,7.406 105.266,8.106 C105.266,8.988 104.384,9.268 103.586,9.268 C102.536,9.268 102.004,8.764 101.836,7.896 L100.478,7.896 C100.618,9.1 101.598,10.332 103.558,10.332 C105.196,10.332 106.568,9.548 106.568,7.952 C106.568,6.44 105.168,5.95 103.866,5.698 L103.026,5.53 C102.284,5.376 101.892,5.11 101.892,4.522 C101.892,3.85 102.648,3.556 103.404,3.556 C104.258,3.556 104.916,3.836 105.084,4.676 L106.428,4.676 Z" id="Path"></path>
        </g>
        <circle id="Oval" fill="#FFFFFF" cx="600" cy="459" r="88"></circle>
        <g id="C" transform="translate(578.220000, 436.440000)" fill="#0F1931" fill-rule="nonzero">
            <path d="M23.17,50.12 C18.97,50.12 15.1083333,49.1516667 11.585,47.215 C8.06166667,45.2783333 5.25,42.42 3.15,38.64 C1.05,34.86 0,30.3333333 0,25.06 C0,19.7866667 1.05,15.26 3.15,11.48 C5.25,7.7 8.06166667,4.84166667 11.585,2.905 C15.1083333,0.968333333 18.97,0 23.17,0 C28.49,0 32.9116667,1.295 36.435,3.885 C39.9583333,6.475 42.3033333,10.1266667 43.47,14.84 L35.28,16.94 C34.2533333,14.2333333 32.7833333,12.1333333 30.87,10.64 C28.9566667,9.14666667 26.39,8.4 23.17,8.4 C20.5566667,8.4 18.2,9.01833333 16.1,10.255 C14,11.4916667 12.3316667,13.3583333 11.095,15.855 C9.85833333,18.3516667 9.24,21.42 9.24,25.06 C9.24,28.7 9.85833333,31.7683333 11.095,34.265 C12.3316667,36.7616667 14,38.6283333 16.1,39.865 C18.2,41.1016667 20.5566667,41.72 23.17,41.72 C26.39,41.72 28.9566667,40.9733333 30.87,39.48 C32.7833333,37.9866667 34.2533333,35.8866667 35.28,33.18 L43.47,35.28 C42.3033333,39.9933333 39.9583333,43.645 36.435,46.235 C32.9116667,48.825 28.49,50.12 23.17,50.12 Z" id="Path"></path>
        </g>
        <g id="Group-5" transform="translate(715.500000, 386.250000) rotate(-300.000000) translate(-715.500000, -386.250000) translate(705.000000, 325.000000)" fill="#FFFFFF" fill-rule="nonzero">
            <path d="M10.5,-0.5 C10.7454599,-0.5 10.9496084,-0.323124839 10.9919443,-0.0898756324 L11,0 L11,122.5 C11,122.776142 10.7761424,123 10.5,123 C10.2545401,123 10.0503916,122.823125 10.0080557,122.589876 L10,122.5 L10,0 C10,-0.276142375 10.2238576,-0.5 10.5,-0.5 Z" id="Stroke-1"></path>
            <path d="M10.1464466,-0.353553391 C10.320013,-0.527119742 10.5894374,-0.546404893 10.7843055,-0.411408841 L10.8535534,-0.353553391 L21.3535534,10.1464466 C21.5488155,10.3417088 21.5488155,10.6582912 21.3535534,10.8535534 C21.179987,11.0271197 20.9105626,11.0464049 20.7156945,10.9114088 L20.6464466,10.8535534 L10.5,0.707 L0.353553391,10.8535534 C0.179987039,11.0271197 -0.0894373624,11.0464049 -0.284305503,10.9114088 L-0.353553391,10.8535534 C-0.527119742,10.679987 -0.546404893,10.4105626 -0.411408841,10.2156945 L-0.353553391,10.1464466 L10.1464466,-0.353553391 Z" id="Stroke-3"></path>
        </g>
        <g id="Group-5-Copy-2" transform="translate(715.500000, 531.250000) scale(1, -1) rotate(-300.000000) translate(-715.500000, -531.250000) translate(705.000000, 470.000000)" fill="#FFFFFF" fill-rule="nonzero">
            <path d="M10.5,-0.5 C10.7454599,-0.5 10.9496084,-0.323124839 10.9919443,-0.0898756324 L11,0 L11,122.5 C11,122.776142 10.7761424,123 10.5,123 C10.2545401,123 10.0503916,122.823125 10.0080557,122.589876 L10,122.5 L10,0 C10,-0.276142375 10.2238576,-0.5 10.5,-0.5 Z" id="Stroke-1"></path>
            <path d="M10.1464466,-0.353553391 C10.320013,-0.527119742 10.5894374,-0.546404893 10.7843055,-0.411408841 L10.8535534,-0.353553391 L21.3535534,10.1464466 C21.5488155,10.3417088 21.5488155,10.6582912 21.3535534,10.8535534 C21.179987,11.0271197 20.9105626,11.0464049 20.7156945,10.9114088 L20.6464466,10.8535534 L10.5,0.707 L0.353553391,10.8535534 C0.179987039,11.0271197 -0.0894373624,11.0464049 -0.284305503,10.9114088 L-0.353553391,10.8535534 C-0.527119742,10.679987 -0.546404893,10.4105626 -0.411408841,10.2156945 L-0.353553391,10.1464466 L10.1464466,-0.353553391 Z" id="Stroke-3"></path>
        </g>
        <g id="Group-5-Copy" transform="translate(484.500000, 386.250000) scale(-1, 1) rotate(-300.000000) translate(-484.500000, -386.250000) translate(474.000000, 325.000000)" fill="#FFFFFF" fill-rule="nonzero">
            <path d="M10.5,-0.5 C10.7454599,-0.5 10.9496084,-0.323124839 10.9919443,-0.0898756324 L11,0 L11,122.5 C11,122.776142 10.7761424,123 10.5,123 C10.2545401,123 10.0503916,122.823125 10.0080557,122.589876 L10,122.5 L10,0 C10,-0.276142375 10.2238576,-0.5 10.5,-0.5 Z" id="Stroke-1"></path>
            <path d="M10.1464466,-0.353553391 C10.320013,-0.527119742 10.5894374,-0.546404893 10.7843055,-0.411408841 L10.8535534,-0.353553391 L21.3535534,10.1464466 C21.5488155,10.3417088 21.5488155,10.6582912 21.3535534,10.8535534 C21.179987,11.0271197 20.9105626,11.0464049 20.7156945,10.9114088 L20.6464466,10.8535534 L10.5,0.707 L0.353553391,10.8535534 C0.179987039,11.0271197 -0.0894373624,11.0464049 -0.284305503,10.9114088 L-0.353553391,10.8535534 C-0.527119742,10.679987 -0.546404893,10.4105626 -0.411408841,10.2156945 L-0.353553391,10.1464466 L10.1464466,-0.353553391 Z" id="Stroke-3"></path>
        </g>
        <g id="Group-5-Copy-3" transform="translate(484.500000, 531.250000) scale(-1, -1) rotate(-300.000000) translate(-484.500000, -531.250000) translate(474.000000, 470.000000)" fill="#FFFFFF" fill-rule="nonzero">
            <path d="M10.5,-0.5 C10.7454599,-0.5 10.9496084,-0.323124839 10.9919443,-0.0898756324 L11,0 L11,122.5 C11,122.776142 10.7761424,123 10.5,123 C10.2545401,123 10.0503916,122.823125 10.0080557,122.589876 L10,122.5 L10,0 C10,-0.276142375 10.2238576,-0.5 10.5,-0.5 Z" id="Stroke-1"></path>
            <path d="M10.1464466,-0.353553391 C10.320013,-0.527119742 10.5894374,-0.546404893 10.7843055,-0.411408841 L10.8535534,-0.353553391 L21.3535534,10.1464466 C21.5488155,10.3417088 21.5488155,10.6582912 21.3535534,10.8535534 C21.179987,11.0271197 20.9105626,11.0464049 20.7156945,10.9114088 L20.6464466,10.8535534 L10.5,0.707 L0.353553391,10.8535534 C0.179987039,11.0271197 -0.0894373624,11.0464049 -0.284305503,10.9114088 L-0.353553391,10.8535534 C-0.527119742,10.679987 -0.546404893,10.4105626 -0.411408841,10.2156945 L-0.353553391,10.1464466 L10.1464466,-0.353553391 Z" id="Stroke-3"></path>
        </g>
        <g id="Group-3" transform="translate(709.000000, 231.000000)">
            <g id="Group" transform="translate(0.000000, -0.000000)">
                <line x1="21.2280405" y1="12.3251534" x2="154.277027" y2="12.3251534" id="Line"></line>
                <rect id="Rectangle" fill="#FFFFFF" x="16.1452703" y="0" width="143" height="84.1717791"></rect>
                <rect id="Rectangle" fill="#FFFFFF" x="20.9290541" y="4.80981595" width="133.945946" height="74.5521472"></rect>
                <polygon id="Rectangle" fill="#FFFFFF" transform="translate(88.500000, 91.589813) scale(1, -1) translate(-88.500000, -91.589813) " points="1.7499404e-14 88.7854472 6.15472093e-15 83.1796265 177 83.1796265 177 88.7854472 159.658784 100.000061 16.1452703 100.000061"></polygon>
                <polygon id="Path-4" fill="#FFFFFF" points="0.298986486 94.6932515 0.298986486 100 176.879635 100 176.879635 94.6932515"></polygon>
                <line x1="0.513632826" y1="94.6932515" x2="176.733897" y2="94.6932515" id="Line-3"></line>
                <g id="Group" transform="translate(0.000000, 0.000000)">
                    <path d="M159.658784,0 L159.658784,84.1717791 L16.1452703,84.1717791 L16.1452703,0 L159.658784,0 Z M158.658,1 L17.145,1 L17.145,83.171 L158.658,83.171 L158.658,1 Z" id="Rectangle" fill="#10162F" fill-rule="nonzero"></path>
                    <path d="M154.875,4.80981595 L154.875,79.3619632 L20.9290541,79.3619632 L20.9290541,4.80981595 L154.875,4.80981595 Z M153.874,5.809 L21.929,5.809 L21.929,78.361 L153.874,78.361 L153.874,5.809 Z" id="Rectangle" fill="#10162F" fill-rule="nonzero"></path>
                    <path d="M177,83.1796265 L177,88.7854472 L159.658784,100 L16.1452703,100 L0,88.7854472 L0,83.1796265 L177,83.1796265 Z M176,84.179 L1,84.179 L1,88.263 L16.457,98.999 L159.364,98.999 L176,88.24 L176,84.179 Z" id="Rectangle" fill="#10162F" fill-rule="nonzero" transform="translate(88.500000, 91.589813) scale(1, -1) translate(-88.500000, -91.589813) "></path>
                    <polygon id="Path-4" fill="#FFFFFF" points="0.298986486 94.6932515 0.298986486 100 176.879635 100 176.879635 94.6932515"></polygon>
                    <polygon id="Line-3" fill="#10162F" fill-rule="nonzero" points="177.233897 94.1932515 177.233897 95.1932515 0.0136328261 95.1932515 0.0136328261 94.1932515"></polygon>
                </g>
            </g>
        </g>
        <polygon id="Path" fill="#0F1931" fill-rule="nonzero" points="773.789639 247.512653 773.789639 248.512653 758.694 248.512 758.694925 263.637653 757.694925 263.637653 757.694925 247.512653"></polygon>
        <polygon id="Path-Copy-2" fill="#0F1931" fill-rule="nonzero" transform="translate(765.742282, 289.950153) scale(1, -1) translate(-765.742282, -289.950153) " points="773.789639 281.887653 773.789639 282.887653 758.694 282.887 758.694925 298.012653 757.694925 298.012653 757.694925 281.887653"></polygon>
        <polygon id="Path-Copy" fill="#0F1931" fill-rule="nonzero" transform="translate(827.341401, 255.575153) scale(-1, 1) translate(-827.341401, -255.575153) " points="835.388758 247.512653 835.388758 248.512653 820.294 248.512 820.294044 263.637653 819.294044 263.637653 819.294044 247.512653"></polygon>
        <polygon id="Path-Copy-3" fill="#0F1931" fill-rule="nonzero" transform="translate(827.341401, 289.950153) scale(-1, -1) translate(-827.341401, -289.950153) " points="835.388758 281.887653 835.388758 282.887653 820.294 282.887 820.294044 298.012653 819.294044 298.012653 819.294044 281.887653"></polygon>
        <g id="Group-2" transform="translate(783.342163, 258.204946)" fill="#10162F" fill-rule="nonzero">
            <path d="M27.3138842,5.67383254 L13.3776625,-0.547759471 L-0.5,5.67440192 L-0.5,23.64268 L13.3776538,30.013929 L27.3138842,23.643255 L27.3138842,5.67383254 Z M13.378,0.547 L26.313,6.321 L26.313,23.001 L13.378,28.914 L0.5,23.001 L0.5,6.321 L13.378,0.547 Z" id="Path-3"></path>
            <polygon id="Path-5" points="26.610057 5.54161117 27.0177114 6.45474747 13.3776625 12.5441181 -0.204559166 6.45441999 0.204559166 5.54193865 13.377 11.448"></polygon>
            <polygon id="Path-2" points="13.8781018 11.9963586 13.8781018 29.4639587 12.8781018 29.4639587 12.8781018 11.9963586"></polygon>
        </g>
        <rect id="Rectangle" fill="#FFFFFF" x="315" y="231" width="176" height="100"></rect>
        <rect id="Rectangle" fill="#FFFFFF" x="366" y="600" width="74" height="74"></rect>
        <rect id="Rectangle" fill="#0F1931" x="378" y="612" width="50" height="50" rx="2"></rect>
        <g id="Group-6" transform="translate(370.000000, 587.000000)" fill="#FFFFFF">
            <rect id="Rectangle-Copy-17" x="0" y="0" width="6" height="13"></rect>
            <rect id="Rectangle-Copy-18" x="12" y="0" width="6" height="13"></rect>
            <rect id="Rectangle-Copy-19" x="24" y="0" width="6" height="13"></rect>
            <rect id="Rectangle-Copy-20" x="36" y="0" width="6" height="13"></rect>
            <rect id="Rectangle-Copy-21" x="48" y="0" width="6" height="13"></rect>
            <rect id="Rectangle-Copy-22" x="60" y="0" width="6" height="13"></rect>
        </g>
        <g id="Group-6-Copy" transform="translate(370.000000, 674.000000)" fill="#FFFFFF">
            <rect id="Rectangle-Copy-17" x="0" y="0" width="6" height="13"></rect>
            <rect id="Rectangle-Copy-18" x="12" y="0" width="6" height="13"></rect>
            <rect id="Rectangle-Copy-19" x="24" y="0" width="6" height="13"></rect>
            <rect id="Rectangle-Copy-20" x="36" y="0" width="6" height="13"></rect>
            <rect id="Rectangle-Copy-21" x="48" y="0" width="6" height="13"></rect>
            <rect id="Rectangle-Copy-22" x="60" y="0" width="6" height="13"></rect>
        </g>
        <g id="Group-6-Copy-2" transform="translate(446.500000, 637.000000) rotate(-90.000000) translate(-446.500000, -637.000000) translate(413.500000, 630.500000)" fill="#FFFFFF">
            <rect id="Rectangle-Copy-17" x="0" y="0" width="6" height="13"></rect>
            <rect id="Rectangle-Copy-18" x="12" y="0" width="6" height="13"></rect>
            <rect id="Rectangle-Copy-19" x="24" y="0" width="6" height="13"></rect>
            <rect id="Rectangle-Copy-20" x="36" y="0" width="6" height="13"></rect>
            <rect id="Rectangle-Copy-21" x="48" y="0" width="6" height="13"></rect>
            <rect id="Rectangle-Copy-22" x="60" y="0" width="6" height="13"></rect>
        </g>
        <g id="Group-6-Copy-3" transform="translate(359.500000, 637.000000) rotate(-90.000000) translate(-359.500000, -637.000000) translate(326.500000, 630.500000)" fill="#FFFFFF">
            <rect id="Rectangle-Copy-17" x="0" y="0" width="6" height="13"></rect>
            <rect id="Rectangle-Copy-18" x="12" y="0" width="6" height="13"></rect>
            <rect id="Rectangle-Copy-19" x="24" y="0" width="6" height="13"></rect>
            <rect id="Rectangle-Copy-20" x="36" y="0" width="6" height="13"></rect>
            <rect id="Rectangle-Copy-21" x="48" y="0" width="6" height="13"></rect>
            <rect id="Rectangle-Copy-22" x="60" y="0" width="6" height="13"></rect>
        </g>
        <rect id="Rectangle-Copy-2" fill="#FFFFFF" x="710" y="586" width="176" height="100"></rect>
        <g id="//" transform="translate(727.485000, 595.025000)" fill="#0F1931" fill-rule="nonzero">
            <polygon id="Path" points="1.001 7.975 4.136 -1.13686838e-13 3.135 -1.13686838e-13 0 7.975"></polygon>
            <polygon id="Path" points="8.107 7.975 11.242 -1.13686838e-13 10.241 -1.13686838e-13 7.106 7.975"></polygon>
        </g>
        <g id="(){" transform="translate(806.376000, 607.025000)" fill="#0F1931" fill-rule="nonzero">
            <path d="M0,4.95 C0,7.172 0.847,8.943 1.507,9.9 L2.343,9.9 C1.617,8.723 1.023,7.018 1.023,4.95 C1.023,2.882 1.617,1.177 2.343,1.13686838e-13 L1.507,1.13686838e-13 C0.847,0.957 0,2.728 0,4.95 Z" id="Path"></path>
            <path d="M9.46,4.95 C9.46,2.728 8.602,0.957 7.942,1.13686838e-13 L7.117,1.13686838e-13 C7.832,1.177 8.426,2.882 8.426,4.95 C8.426,7.018 7.832,8.723 7.117,9.9 L7.942,9.9 C8.602,8.943 9.46,7.172 9.46,4.95 Z" id="Path"></path>
            <path d="M16.346,9.9 L16.874,9.9 L16.874,9.053 L16.368,9.053 C15.851,9.053 15.752,8.899 15.752,8.283 L15.752,6.468 C15.752,5.445 15.411,5.115 14.828,4.961 L14.828,4.939 C15.411,4.785 15.752,4.455 15.752,3.432 L15.752,1.617 C15.752,1.001 15.851,0.847 16.368,0.847 L16.874,0.847 L16.874,1.13686838e-13 L16.346,1.13686838e-13 C15.015,1.13686838e-13 14.751,0.396 14.751,1.628 L14.751,3.41 C14.751,4.092 14.641,4.543 13.915,4.543 L13.915,5.357 C14.641,5.357 14.751,5.797 14.751,6.49 L14.751,8.272 C14.751,9.504 15.015,9.9 16.346,9.9 Z" id="Path"></path>
        </g>
        <g id=";" transform="translate(839.871000, 622.082000)" fill="#0F1931" fill-rule="nonzero">
            <path d="M1.309,1.265 L1.309,1.13686838e-13 L0.044,1.13686838e-13 L0.044,1.265 L1.309,1.265 Z M0.044,5.918 L0.583,5.918 L0,7.447 L0.638,7.447 L1.309,6.006 L1.309,4.653 L0.044,4.653 L0.044,5.918 Z" id="Shape"></path>
        </g>
        <g id=";-copy" transform="translate(829.871000, 648.082000)" fill="#0F1931" fill-rule="nonzero">
            <path d="M1.309,1.265 L1.309,1.13686838e-13 L0.044,1.13686838e-13 L0.044,1.265 L1.309,1.265 Z M0.044,5.918 L0.583,5.918 L0,7.447 L0.638,7.447 L1.309,6.006 L1.309,4.653 L0.044,4.653 L0.044,5.918 Z" id="Shape"></path>
        </g>
        <g id="{" transform="translate(809.079000, 634.025000)" fill="#0F1931" fill-rule="nonzero">
            <path d="M2.431,9.9 L2.959,9.9 L2.959,9.053 L2.453,9.053 C1.936,9.053 1.837,8.899 1.837,8.283 L1.837,6.468 C1.837,5.445 1.496,5.115 0.913,4.961 L0.913,4.939 C1.496,4.785 1.837,4.455 1.837,3.432 L1.837,1.617 C1.837,1.001 1.936,0.847 2.453,0.847 L2.959,0.847 L2.959,1.13686838e-13 L2.431,1.13686838e-13 C1.1,1.13686838e-13 0.836,0.396 0.836,1.628 L0.836,3.41 C0.836,4.092 0.726,4.543 0,4.543 L0,5.357 C0.726,5.357 0.836,5.797 0.836,6.49 L0.836,8.272 C0.836,9.504 1.1,9.9 2.431,9.9 Z" id="Path"></path>
        </g>
        <g id="}" transform="translate(740.068000, 659.025000)" fill="#0F1931" fill-rule="nonzero">
            <path d="M0,9.9 L0.517,9.9 C1.848,9.9 2.112,9.504 2.112,8.272 L2.112,6.49 C2.112,5.797 2.222,5.357 2.959,5.357 L2.959,4.543 C2.222,4.543 2.112,4.092 2.112,3.41 L2.112,1.628 C2.112,0.396 1.848,1.13686838e-13 0.517,1.13686838e-13 L0,1.13686838e-13 L0,0.847 L0.495,0.847 C1.012,0.847 1.111,1.001 1.111,1.617 L1.111,3.432 C1.111,4.455 1.452,4.785 2.035,4.939 L2.035,4.961 C1.452,5.115 1.111,5.445 1.111,6.468 L1.111,8.283 C1.111,8.899 1.012,9.053 0.495,9.053 L0,9.053 L0,9.9 Z" id="Path"></path>
        </g>
        <g id="}-copy" transform="translate(728.068000, 669.025000)" fill="#0F1931" fill-rule="nonzero">
            <path d="M0,9.9 L0.517,9.9 C1.848,9.9 2.112,9.504 2.112,8.272 L2.112,6.49 C2.112,5.797 2.222,5.357 2.959,5.357 L2.959,4.543 C2.222,4.543 2.112,4.092 2.112,3.41 L2.112,1.628 C2.112,0.396 1.848,1.13686838e-13 0.517,1.13686838e-13 L0,1.13686838e-13 L0,0.847 L0.495,0.847 C1.012,0.847 1.111,1.001 1.111,1.617 L1.111,3.432 C1.111,4.455 1.452,4.785 2.035,4.939 L2.035,4.961 C1.452,5.115 1.111,5.445 1.111,6.468 L1.111,8.283 C1.111,8.899 1.012,9.053 0.495,9.053 L0,9.053 L0,9.9 Z" id="Path"></path>
        </g>
        <polygon id="Line-2" fill="#0F1931" fill-rule="nonzero" points="491.5 258.5 491.5 259.5 314.5 259.5 314.5 258.5"></polygon>
        <polygon id="Line-2-Copy" fill="#0F1931" fill-rule="nonzero" points="491.5 276.5 491.5 277.5 314.5 277.5 314.5 276.5"></polygon>
        <polygon id="Line-2-Copy-2" fill="#0F1931" fill-rule="nonzero" points="491.5 294.5 491.5 295.5 314.5 295.5 314.5 294.5"></polygon>
        <polygon id="Line-2-Copy-3" fill="#0F1931" fill-rule="nonzero" points="491.5 312.5 491.5 313.5 314.5 313.5 314.5 312.5"></polygon>
        <polygon id="Line-4" fill="#0F1931" fill-rule="nonzero" points="349 259 349 331 348 331 348 259"></polygon>
        <g id="Embedded-Systems" transform="translate(331.568000, 704.668000)" fill="#FFFFFF" fill-rule="nonzero">
            <polygon id="Path" points="0 10.332 6.048 10.332 6.048 9.072 1.33 9.072 1.33 5.726 5.768 5.726 5.768 4.466 1.33 4.466 1.33 1.442 6.048 1.442 6.048 0.182 0 0.182"></polygon>
            <path d="M12.376,3.626 C12.208,3.122 11.886,2.674 11.2,2.674 C10.486,2.674 10.08,3.108 9.828,3.598 L9.828,2.8 L8.596,2.8 L8.596,10.332 L9.884,10.332 L9.884,6.09 C9.884,4.522 10.08,3.752 10.738,3.752 C11.368,3.752 11.368,4.592 11.368,5.684 L11.368,10.332 L12.656,10.332 L12.656,6.062 C12.656,4.508 12.852,3.752 13.496,3.752 C14.14,3.752 14.14,4.592 14.14,5.684 L14.14,10.332 L15.428,10.332 L15.428,5.026 C15.428,3.038 14.658,2.674 13.874,2.674 C13.188,2.674 12.698,3.038 12.376,3.626 Z" id="Path"></path>
            <path d="M19.348,0.182 L18.06,0.182 L18.06,10.332 L19.334,10.332 L19.348,9.268 C19.782,9.982 20.454,10.514 21.588,10.514 C23.31,10.514 24.612,9.086 24.612,6.594 C24.612,4.116 23.31,2.674 21.588,2.674 C20.454,2.674 19.782,3.206 19.348,3.934 L19.348,0.182 Z M19.292,6.594 C19.292,4.606 20.244,3.752 21.308,3.752 C22.61,3.752 23.254,4.802 23.254,6.594 C23.254,8.386 22.61,9.45 21.308,9.45 C20.244,9.45 19.292,8.582 19.292,6.594 Z" id="Shape"></path>
            <path d="M30.128,10.514 C31.892,10.514 33.068,9.506 33.376,8.078 L32.046,8.078 C31.78,8.932 31.22,9.464 30.1,9.464 C28.91,9.464 28.07,8.47 28.07,6.958 L33.488,6.958 C33.586,4.27 32.326,2.66 30.128,2.66 C28.14,2.66 26.712,4.172 26.712,6.594 C26.712,8.82 27.846,10.514 30.128,10.514 Z M30.128,3.724 C31.444,3.724 32.13,4.662 32.116,5.894 L28.084,5.894 C28.14,4.438 28.91,3.724 30.128,3.724 Z" id="Shape"></path>
            <path d="M40.824,3.934 C40.404,3.206 39.732,2.674 38.598,2.674 C36.862,2.674 35.56,4.116 35.56,6.594 C35.56,9.086 36.862,10.514 38.598,10.514 C39.732,10.514 40.404,9.982 40.824,9.268 L40.838,10.332 L42.112,10.332 L42.112,0.182 L40.824,0.182 L40.824,3.934 Z M40.88,6.594 C40.88,8.568 39.942,9.45 38.864,9.45 C37.576,9.45 36.918,8.386 36.918,6.594 C36.918,4.802 37.576,3.752 38.864,3.752 C39.942,3.752 40.88,4.606 40.88,6.594 Z" id="Shape"></path>
            <path d="M49.868,3.934 C49.448,3.206 48.776,2.674 47.642,2.674 C45.906,2.674 44.604,4.116 44.604,6.594 C44.604,9.086 45.906,10.514 47.642,10.514 C48.776,10.514 49.448,9.982 49.868,9.268 L49.882,10.332 L51.156,10.332 L51.156,0.182 L49.868,0.182 L49.868,3.934 Z M49.924,6.594 C49.924,8.568 48.986,9.45 47.908,9.45 C46.62,9.45 45.962,8.386 45.962,6.594 C45.962,4.802 46.62,3.752 47.908,3.752 C48.986,3.752 49.924,4.606 49.924,6.594 Z" id="Shape"></path>
            <path d="M57.26,10.514 C59.024,10.514 60.2,9.506 60.508,8.078 L59.178,8.078 C58.912,8.932 58.352,9.464 57.232,9.464 C56.042,9.464 55.202,8.47 55.202,6.958 L60.62,6.958 C60.718,4.27 59.458,2.66 57.26,2.66 C55.272,2.66 53.844,4.172 53.844,6.594 C53.844,8.82 54.978,10.514 57.26,10.514 Z M57.26,3.724 C58.576,3.724 59.262,4.662 59.248,5.894 L55.216,5.894 C55.272,4.438 56.042,3.724 57.26,3.724 Z" id="Shape"></path>
            <path d="M67.956,3.934 C67.536,3.206 66.864,2.674 65.73,2.674 C63.994,2.674 62.692,4.116 62.692,6.594 C62.692,9.086 63.994,10.514 65.73,10.514 C66.864,10.514 67.536,9.982 67.956,9.268 L67.97,10.332 L69.244,10.332 L69.244,0.182 L67.956,0.182 L67.956,3.934 Z M68.012,6.594 C68.012,8.568 67.074,9.45 65.996,9.45 C64.708,9.45 64.05,8.386 64.05,6.594 C64.05,4.802 64.708,3.752 65.996,3.752 C67.074,3.752 68.012,4.606 68.012,6.594 Z" id="Shape"></path>
            <path d="M83.538,5.544 L84.644,5.81 C85.75,6.062 86.548,6.538 86.548,7.588 C86.548,8.75 85.512,9.282 84.504,9.282 C83.202,9.282 82.25,8.526 82.11,7.168 L80.794,7.168 C80.906,9.184 82.404,10.514 84.462,10.514 C86.422,10.514 87.892,9.38 87.892,7.49 C87.892,5.558 86.464,4.844 84.826,4.48 L83.818,4.256 C83.006,4.074 82.348,3.64 82.348,2.744 C82.348,1.694 83.314,1.232 84.238,1.232 C85.162,1.232 86.212,1.638 86.366,2.856 L87.682,2.856 C87.458,0.84 85.876,1.13686838e-13 84.308,1.13686838e-13 C82.488,1.13686838e-13 80.976,1.036 80.976,2.786 C80.976,4.396 82.208,5.25 83.538,5.544 Z" id="Path"></path>
            <path d="M91.434,12.782 C93.03,12.782 93.45,12.138 93.982,10.654 L96.768,2.8 L95.438,2.8 L93.436,8.61 L91.392,2.8 L89.978,2.8 L92.792,10.332 L92.736,10.5 C92.344,11.578 92.092,11.676 91.308,11.676 L89.95,11.676 L89.95,12.782 L91.434,12.782 Z" id="Path"></path>
            <path d="M105.336,4.858 C105.056,3.514 103.964,2.674 102.368,2.674 C101.108,2.674 99.526,3.304 99.526,4.76 C99.526,6.062 100.464,6.65 101.654,6.888 L102.592,7.07 C103.544,7.238 104.174,7.588 104.174,8.288 C104.174,9.17 103.292,9.45 102.494,9.45 C101.444,9.45 100.912,8.946 100.744,8.078 L99.386,8.078 C99.526,9.282 100.506,10.514 102.466,10.514 C104.104,10.514 105.476,9.73 105.476,8.134 C105.476,6.622 104.076,6.132 102.774,5.88 L101.934,5.712 C101.192,5.558 100.8,5.292 100.8,4.704 C100.8,4.032 101.556,3.738 102.312,3.738 C103.166,3.738 103.824,4.018 103.992,4.858 L105.336,4.858 Z" id="Path"></path>
            <path d="M109.718,2.8 L107.576,2.8 L107.576,3.906 L109.718,3.906 L109.718,8.442 C109.718,10.01 110.11,10.332 111.482,10.332 L114.086,10.332 L114.086,9.226 L111.762,9.226 C111.048,9.226 111.006,9.03 111.006,8.26 L111.006,3.906 L114.086,3.906 L114.086,2.8 L111.006,2.8 L111.006,0.91 L109.718,0.91 L109.718,2.8 Z" id="Path"></path>
            <path d="M120.568,10.514 C122.332,10.514 123.508,9.506 123.816,8.078 L122.486,8.078 C122.22,8.932 121.66,9.464 120.54,9.464 C119.35,9.464 118.51,8.47 118.51,6.958 L123.928,6.958 C124.026,4.27 122.766,2.66 120.568,2.66 C118.58,2.66 117.152,4.172 117.152,6.594 C117.152,8.82 118.286,10.514 120.568,10.514 Z M120.568,3.724 C121.884,3.724 122.57,4.662 122.556,5.894 L118.524,5.894 C118.58,4.438 119.35,3.724 120.568,3.724 Z" id="Shape"></path>
            <path d="M129.948,3.626 C129.78,3.122 129.458,2.674 128.772,2.674 C128.058,2.674 127.652,3.108 127.4,3.598 L127.4,2.8 L126.168,2.8 L126.168,10.332 L127.456,10.332 L127.456,6.09 C127.456,4.522 127.652,3.752 128.31,3.752 C128.94,3.752 128.94,4.592 128.94,5.684 L128.94,10.332 L130.228,10.332 L130.228,6.062 C130.228,4.508 130.424,3.752 131.068,3.752 C131.712,3.752 131.712,4.592 131.712,5.684 L131.712,10.332 L133,10.332 L133,5.026 C133,3.038 132.23,2.674 131.446,2.674 C130.76,2.674 130.27,3.038 129.948,3.626 Z" id="Path"></path>
            <path d="M141.512,4.858 C141.232,3.514 140.14,2.674 138.544,2.674 C137.284,2.674 135.702,3.304 135.702,4.76 C135.702,6.062 136.64,6.65 137.83,6.888 L138.768,7.07 C139.72,7.238 140.35,7.588 140.35,8.288 C140.35,9.17 139.468,9.45 138.67,9.45 C137.62,9.45 137.088,8.946 136.92,8.078 L135.562,8.078 C135.702,9.282 136.682,10.514 138.642,10.514 C140.28,10.514 141.652,9.73 141.652,8.134 C141.652,6.622 140.252,6.132 138.95,5.88 L138.11,5.712 C137.368,5.558 136.976,5.292 136.976,4.704 C136.976,4.032 137.732,3.738 138.488,3.738 C139.342,3.738 140,4.018 140.168,4.858 L141.512,4.858 Z" id="Path"></path>
        </g>
        <g id="Programming-Language" transform="translate(703.694000, 704.850000)" fill="#FFFFFF" fill-rule="nonzero">
            <path d="M0,-1.13686838e-13 L0,10.15 L1.33,10.15 L1.33,6.244 L2.492,6.244 C4.718,6.244 6.426,5.642 6.426,3.122 C6.426,0.602 4.718,-1.13686838e-13 2.492,-1.13686838e-13 L0,-1.13686838e-13 Z M2.66,1.26 C4.018,1.26 5.054,1.47 5.054,3.122 C5.054,4.774 4.018,4.984 2.66,4.984 L1.33,4.984 L1.33,1.26 L2.66,1.26 Z" id="Shape"></path>
            <path d="M8.554,2.618 L8.554,3.724 L10.696,3.724 L10.696,9.044 L8.568,9.044 L8.568,10.15 L14.56,10.15 L14.56,9.044 L11.984,9.044 L11.984,6.398 C11.984,4.746 12.544,3.794 13.986,3.794 L15.26,3.794 L15.26,2.618 L13.972,2.618 C13.048,2.618 12.32,3.122 11.956,3.962 L11.956,2.618 L8.554,2.618 Z" id="Path"></path>
            <path d="M18.788,6.412 C18.788,4.41 19.768,3.57 20.916,3.57 C22.064,3.57 23.044,4.41 23.044,6.412 C23.044,8.414 22.064,9.254 20.916,9.254 C19.768,9.254 18.788,8.414 18.788,6.412 Z M17.43,6.412 C17.43,9.142 19.194,10.332 20.916,10.332 C22.638,10.332 24.402,9.142 24.402,6.412 C24.402,3.682 22.638,2.492 20.916,2.492 C19.194,2.492 17.43,3.682 17.43,6.412 Z" id="Shape"></path>
            <path d="M31.682,3.752 C31.262,3.024 30.59,2.492 29.456,2.492 C27.72,2.492 26.418,3.78 26.418,6.258 C26.418,8.75 27.72,10.024 29.456,10.024 C30.59,10.024 31.262,9.506 31.682,8.778 L31.682,9.506 C31.682,10.528 31.542,10.878 31.29,11.172 C30.982,11.536 30.394,11.732 29.75,11.732 C28.644,11.732 28.252,11.27 28.07,10.584 L26.712,10.584 C26.936,12.068 28.098,12.852 29.736,12.852 C30.8,12.852 31.836,12.488 32.368,11.858 C32.774,11.382 32.97,10.752 32.97,9.212 L32.97,2.618 L31.682,2.618 L31.682,3.752 Z M31.738,6.258 C31.738,8.232 30.8,8.96 29.722,8.96 C28.434,8.96 27.776,8.05 27.776,6.258 C27.776,4.466 28.434,3.57 29.722,3.57 C30.8,3.57 31.738,4.27 31.738,6.258 Z" id="Shape"></path>
            <path d="M35.686,2.618 L35.686,3.724 L37.828,3.724 L37.828,9.044 L35.7,9.044 L35.7,10.15 L41.692,10.15 L41.692,9.044 L39.116,9.044 L39.116,6.398 C39.116,4.746 39.676,3.794 41.118,3.794 L42.392,3.794 L42.392,2.618 L41.104,2.618 C40.18,2.618 39.452,3.122 39.088,3.962 L39.088,2.618 L35.686,2.618 Z" id="Path"></path>
            <path d="M47.292,10.332 C48.692,10.332 49.476,9.828 49.938,9.044 L49.952,10.15 L51.184,10.15 C51.142,9.646 51.072,8.568 51.086,7.308 L51.1,5.474 C51.128,3.388 50.232,2.464 48.146,2.464 C46.578,2.464 45.15,3.374 45.024,4.998 L46.34,4.998 C46.424,4.074 46.97,3.5 48.132,3.5 C49.112,3.5 49.826,3.892 49.826,5.194 L49.826,5.516 C46.746,5.852 44.842,6.398 44.842,8.19 C44.842,9.548 45.934,10.332 47.292,10.332 Z M49.924,6.748 C49.924,8.75 48.804,9.296 47.656,9.296 C46.746,9.296 46.228,8.876 46.228,8.162 C46.228,7.084 47.628,6.762 49.924,6.538 L49.924,6.748 Z" id="Shape"></path>
            <path d="M57.47,3.444 C57.302,2.94 56.98,2.492 56.294,2.492 C55.58,2.492 55.174,2.926 54.922,3.416 L54.922,2.618 L53.69,2.618 L53.69,10.15 L54.978,10.15 L54.978,5.908 C54.978,4.34 55.174,3.57 55.832,3.57 C56.462,3.57 56.462,4.41 56.462,5.502 L56.462,10.15 L57.75,10.15 L57.75,5.88 C57.75,4.326 57.946,3.57 58.59,3.57 C59.234,3.57 59.234,4.41 59.234,5.502 L59.234,10.15 L60.522,10.15 L60.522,4.844 C60.522,2.856 59.752,2.492 58.968,2.492 C58.282,2.492 57.792,2.856 57.47,3.444 Z" id="Path"></path>
            <path d="M66.514,3.444 C66.346,2.94 66.024,2.492 65.338,2.492 C64.624,2.492 64.218,2.926 63.966,3.416 L63.966,2.618 L62.734,2.618 L62.734,10.15 L64.022,10.15 L64.022,5.908 C64.022,4.34 64.218,3.57 64.876,3.57 C65.506,3.57 65.506,4.41 65.506,5.502 L65.506,10.15 L66.794,10.15 L66.794,5.88 C66.794,4.326 66.99,3.57 67.634,3.57 C68.278,3.57 68.278,4.41 68.278,5.502 L68.278,10.15 L69.566,10.15 L69.566,4.844 C69.566,2.856 68.796,2.492 68.012,2.492 C67.326,2.492 66.836,2.856 66.514,3.444 Z" id="Path"></path>
            <path d="M74.662,-1.13686838e-13 L74.662,1.526 L75.95,1.526 L75.95,-1.13686838e-13 L74.662,-1.13686838e-13 Z M72.534,2.618 L72.534,3.724 L74.662,3.724 L74.662,9.044 L72.534,9.044 L72.534,10.15 L78.092,10.15 L78.092,9.044 L75.95,9.044 L75.95,2.618 L72.534,2.618 Z" id="Shape"></path>
            <path d="M82.586,2.618 L81.298,2.618 L81.298,10.15 L82.586,10.15 L82.586,6.062 C82.586,4.452 83.216,3.584 84.378,3.584 C85.778,3.584 85.876,4.592 85.876,5.81 L85.876,10.15 L87.164,10.15 L87.164,5.362 C87.164,3.696 86.618,2.492 84.798,2.492 C83.608,2.492 82.964,3.038 82.586,3.682 L82.586,2.618 Z" id="Path"></path>
            <path d="M94.99,3.752 C94.57,3.024 93.898,2.492 92.764,2.492 C91.028,2.492 89.726,3.78 89.726,6.258 C89.726,8.75 91.028,10.024 92.764,10.024 C93.898,10.024 94.57,9.506 94.99,8.778 L94.99,9.506 C94.99,10.528 94.85,10.878 94.598,11.172 C94.29,11.536 93.702,11.732 93.058,11.732 C91.952,11.732 91.56,11.27 91.378,10.584 L90.02,10.584 C90.244,12.068 91.406,12.852 93.044,12.852 C94.108,12.852 95.144,12.488 95.676,11.858 C96.082,11.382 96.278,10.752 96.278,9.212 L96.278,2.618 L94.99,2.618 L94.99,3.752 Z M95.046,6.258 C95.046,8.232 94.108,8.96 93.03,8.96 C91.742,8.96 91.084,8.05 91.084,6.258 C91.084,4.466 91.742,3.57 93.03,3.57 C94.108,3.57 95.046,4.27 95.046,6.258 Z" id="Shape"></path>
            <polygon id="Path" points="109.914 -1.13686838e-13 108.584 -1.13686838e-13 108.584 10.15 114.898 10.15 114.898 8.89 109.914 8.89"></polygon>
            <path d="M119.644,10.332 C121.044,10.332 121.828,9.828 122.29,9.044 L122.304,10.15 L123.536,10.15 C123.494,9.646 123.424,8.568 123.438,7.308 L123.452,5.474 C123.48,3.388 122.584,2.464 120.498,2.464 C118.93,2.464 117.502,3.374 117.376,4.998 L118.692,4.998 C118.776,4.074 119.322,3.5 120.484,3.5 C121.464,3.5 122.178,3.892 122.178,5.194 L122.178,5.516 C119.098,5.852 117.194,6.398 117.194,8.19 C117.194,9.548 118.286,10.332 119.644,10.332 Z M122.276,6.748 C122.276,8.75 121.156,9.296 120.008,9.296 C119.098,9.296 118.58,8.876 118.58,8.162 C118.58,7.084 119.98,6.762 122.276,6.538 L122.276,6.748 Z" id="Shape"></path>
            <path d="M127.806,2.618 L126.518,2.618 L126.518,10.15 L127.806,10.15 L127.806,6.062 C127.806,4.452 128.436,3.584 129.598,3.584 C130.998,3.584 131.096,4.592 131.096,5.81 L131.096,10.15 L132.384,10.15 L132.384,5.362 C132.384,3.696 131.838,2.492 130.018,2.492 C128.828,2.492 128.184,3.038 127.806,3.682 L127.806,2.618 Z" id="Path"></path>
            <path d="M140.21,3.752 C139.79,3.024 139.118,2.492 137.984,2.492 C136.248,2.492 134.946,3.78 134.946,6.258 C134.946,8.75 136.248,10.024 137.984,10.024 C139.118,10.024 139.79,9.506 140.21,8.778 L140.21,9.506 C140.21,10.528 140.07,10.878 139.818,11.172 C139.51,11.536 138.922,11.732 138.278,11.732 C137.172,11.732 136.78,11.27 136.598,10.584 L135.24,10.584 C135.464,12.068 136.626,12.852 138.264,12.852 C139.328,12.852 140.364,12.488 140.896,11.858 C141.302,11.382 141.498,10.752 141.498,9.212 L141.498,2.618 L140.21,2.618 L140.21,3.752 Z M140.266,6.258 C140.266,8.232 139.328,8.96 138.25,8.96 C136.962,8.96 136.304,8.05 136.304,6.258 C136.304,4.466 136.962,3.57 138.25,3.57 C139.328,3.57 140.266,4.27 140.266,6.258 Z" id="Shape"></path>
            <path d="M149.156,10.15 L150.444,10.15 L150.444,2.618 L149.156,2.618 L149.156,6.762 C149.156,8.372 148.526,9.226 147.364,9.226 C145.964,9.226 145.894,8.232 145.894,7.014 L145.894,2.618 L144.606,2.618 L144.606,7.462 C144.606,9.128 145.124,10.332 146.944,10.332 C148.148,10.332 148.75,9.828 149.156,9.184 L149.156,10.15 Z" id="Path"></path>
            <path d="M155.82,10.332 C157.22,10.332 158.004,9.828 158.466,9.044 L158.48,10.15 L159.712,10.15 C159.67,9.646 159.6,8.568 159.614,7.308 L159.628,5.474 C159.656,3.388 158.76,2.464 156.674,2.464 C155.106,2.464 153.678,3.374 153.552,4.998 L154.868,4.998 C154.952,4.074 155.498,3.5 156.66,3.5 C157.64,3.5 158.354,3.892 158.354,5.194 L158.354,5.516 C155.274,5.852 153.37,6.398 153.37,8.19 C153.37,9.548 154.462,10.332 155.82,10.332 Z M158.452,6.748 C158.452,8.75 157.332,9.296 156.184,9.296 C155.274,9.296 154.756,8.876 154.756,8.162 C154.756,7.084 156.156,6.762 158.452,6.538 L158.452,6.748 Z" id="Shape"></path>
            <path d="M167.342,3.752 C166.922,3.024 166.25,2.492 165.116,2.492 C163.38,2.492 162.078,3.78 162.078,6.258 C162.078,8.75 163.38,10.024 165.116,10.024 C166.25,10.024 166.922,9.506 167.342,8.778 L167.342,9.506 C167.342,10.528 167.202,10.878 166.95,11.172 C166.642,11.536 166.054,11.732 165.41,11.732 C164.304,11.732 163.912,11.27 163.73,10.584 L162.372,10.584 C162.596,12.068 163.758,12.852 165.396,12.852 C166.46,12.852 167.496,12.488 168.028,11.858 C168.434,11.382 168.63,10.752 168.63,9.212 L168.63,2.618 L167.342,2.618 L167.342,3.752 Z M167.398,6.258 C167.398,8.232 166.46,8.96 165.382,8.96 C164.094,8.96 163.436,8.05 163.436,6.258 C163.436,4.466 164.094,3.57 165.382,3.57 C166.46,3.57 167.398,4.27 167.398,6.258 Z" id="Shape"></path>
            <path d="M174.706,10.332 C176.47,10.332 177.646,9.324 177.954,7.896 L176.624,7.896 C176.358,8.75 175.798,9.282 174.678,9.282 C173.488,9.282 172.648,8.288 172.648,6.776 L178.066,6.776 C178.164,4.088 176.904,2.478 174.706,2.478 C172.718,2.478 171.29,3.99 171.29,6.412 C171.29,8.638 172.424,10.332 174.706,10.332 Z M174.706,3.542 C176.022,3.542 176.708,4.48 176.694,5.712 L172.662,5.712 C172.718,4.256 173.488,3.542 174.706,3.542 Z" id="Shape"></path>
            <path d="M186.606,4.676 C186.326,3.332 185.234,2.492 183.638,2.492 C182.378,2.492 180.796,3.122 180.796,4.578 C180.796,5.88 181.734,6.468 182.924,6.706 L183.862,6.888 C184.814,7.056 185.444,7.406 185.444,8.106 C185.444,8.988 184.562,9.268 183.764,9.268 C182.714,9.268 182.182,8.764 182.014,7.896 L180.656,7.896 C180.796,9.1 181.776,10.332 183.736,10.332 C185.374,10.332 186.746,9.548 186.746,7.952 C186.746,6.44 185.346,5.95 184.044,5.698 L183.204,5.53 C182.462,5.376 182.07,5.11 182.07,4.522 C182.07,3.85 182.826,3.556 183.582,3.556 C184.436,3.556 185.094,3.836 185.262,4.676 L186.606,4.676 Z" id="Path"></path>
        </g>
        <path d="M831.5,596 C833.432997,596 835,597.567003 835,599.5 C835,601.432997 833.432997,603 831.5,603 L744.5,603 C742.567003,603 741,601.432997 741,599.5 C741,597.567003 742.567003,596 744.5,596 L831.5,596 Z M831.5,597 L744.5,597 C743.119288,597 742,598.119288 742,599.5 C742,600.825483 743.031536,601.910039 744.335624,601.994682 L744.5,602 L831.5,602 C832.880712,602 834,600.880712 834,599.5 C834,598.174517 832.968464,597.089961 831.664376,597.005318 L831.5,597 Z" id="Rectangle" fill="#0F1931" fill-rule="nonzero"></path>
        <path d="M798.5,609 C800.432997,609 802,610.567003 802,612.5 C802,614.432997 800.432997,616 798.5,616 L729.5,616 C727.567003,616 726,614.432997 726,612.5 C726,610.567003 727.567003,609 729.5,609 L798.5,609 Z M798.5,610 L729.5,610 C728.119288,610 727,611.119288 727,612.5 C727,613.825483 728.031536,614.910039 729.335624,614.994682 L729.5,615 L798.5,615 C799.880712,615 801,613.880712 801,612.5 C801,611.174517 799.968464,610.089961 798.664376,610.005318 L798.5,610 Z" id="Rectangle-Copy-3" fill="#0F1931" fill-rule="nonzero"></path>
        <path d="M831.5,622 C833.432997,622 835,623.567003 835,625.5 C835,627.432997 833.432997,629 831.5,629 L741.5,629 C739.567003,629 738,627.432997 738,625.5 C738,623.567003 739.567003,622 741.5,622 L831.5,622 Z M831.5,623 L741.5,623 C740.119288,623 739,624.119288 739,625.5 C739,626.825483 740.031536,627.910039 741.335624,627.994682 L741.5,628 L831.5,628 C832.880712,628 834,626.880712 834,625.5 C834,624.174517 832.968464,623.089961 831.664376,623.005318 L831.5,623 Z" id="Rectangle-Copy-4" fill="#0F1931" fill-rule="nonzero"></path>
        <path d="M821.5,648 C823.432997,648 825,649.567003 825,651.5 C825,653.432997 823.432997,655 821.5,655 L741.5,655 C739.567003,655 738,653.432997 738,651.5 C738,649.567003 739.567003,648 741.5,648 L821.5,648 Z M821.5,649 L741.5,649 C740.119288,649 739,650.119288 739,651.5 C739,652.825483 740.031536,653.910039 741.335624,653.994682 L741.5,654 L821.5,654 C822.880712,654 824,652.880712 824,651.5 C824,650.174517 822.968464,649.089961 821.664376,649.005318 L821.5,649 Z" id="Rectangle-Copy-6" fill="#0F1931" fill-rule="nonzero"></path>
        <path d="M801.5,635 C803.432997,635 805,636.567003 805,638.5 C805,640.432997 803.432997,642 801.5,642 L741.5,642 C739.567003,642 738,640.432997 738,638.5 C738,636.567003 739.567003,635 741.5,635 L801.5,635 Z M801.5,636 L741.5,636 C740.119288,636 739,637.119288 739,638.5 C739,639.825483 740.031536,640.910039 741.335624,640.994682 L741.5,641 L801.5,641 C802.880712,641 804,639.880712 804,638.5 C804,637.174517 802.968464,636.089961 801.664376,636.005318 L801.5,636 Z" id="Rectangle-Copy-5" fill="#0F1931" fill-rule="nonzero"></path>
    </g>
</svg>